<svg width="24" height="20" viewBox="0 0 24 20" fill="none" xmlns="http://www.w3.org/2000/svg">
<g id="Group 1000005325">
<path id="Vector" d="M17.6343 8.28071C16.8545 11.9809 16.0752 15.6806 15.2954 19.3808C14.5144 19.6407 13.4066 19.921 12.06 19.9936V20C12.0398 19.9992 12.0204 19.9979 12.0001 19.9966C11.9799 19.9975 11.9605 19.9992 11.9403 20V19.9936C10.5937 19.921 9.4859 19.6407 8.7049 19.3808C7.92513 15.6806 7.14577 11.9809 6.366 8.28071C2.57854 7.09799 -6.10352e-05 4.76017 -6.10352e-05 2.06858C-6.10352e-05 1.34876 0.184774 0.653997 0.527625 0C1.61064 2.16881 4.27341 3.91209 7.69037 4.72152C8.79566 4.39622 10.2372 4.1015 11.9399 4.05521V4.05181C11.9601 4.05181 11.9795 4.05308 11.9997 4.05351C12.0199 4.05308 12.0393 4.05223 12.0596 4.05181V4.05521C13.7623 4.1015 15.2038 4.39622 16.3091 4.72152C19.7261 3.91209 22.3892 2.16881 23.4727 0C23.8151 0.653997 23.9999 1.34876 23.9999 2.06858C23.9999 4.76017 21.4213 7.09799 17.6339 8.28071H17.6343Z" fill="white"/>
</g>
</svg>
