<svg width="30" height="30" viewBox="0 0 30 30" fill="none" xmlns="http://www.w3.org/2000/svg">
<g clip-path="url(#clip0_11347_241833)">
<path d="M2.79991 4.6803C2.79991 4.6803 4.46768 8.30804 7.73455 9.38988L6.72061 13.9644C6.72061 13.9644 0.0281758 13.0634 2.79991 4.6803Z" fill="url(#paint0_linear_11347_241833)"/>
<mask id="mask0_11347_241833" style="mask-type:luminance" maskUnits="userSpaceOnUse" x="2" y="4" width="6" height="10">
<path d="M2.79942 4.67993C2.79942 4.67993 4.46719 8.30767 7.73406 9.38951L6.72012 13.964C6.72012 13.964 0.0276875 13.063 2.79942 4.67993Z" fill="white"/>
</mask>
<g mask="url(#mask0_11347_241833)">
<g filter="url(#filter0_d_11347_241833)">
<path d="M2.75966 4.29565C2.75966 4.29565 0.819524 11.7731 9.22169 12.0043L5.99907 14.9111L1.2666 11.1704L2.75966 4.29565Z" fill="url(#paint1_linear_11347_241833)"/>
</g>
<path d="M1.94298 7.22684C1.94298 7.22684 2.10473 12.9511 7.59936 13.2494L6.74335 14.5273L4.15854 14.068L1.10986 9.86277L1.94375 7.22607L1.94298 7.22684Z" fill="white"/>
</g>
<path d="M0.410882 9.08179C0.410882 9.08179 2.78436 12.2922 6.20382 12.6836L6.14584 17.3688C6.14584 17.3688 -0.589321 17.854 0.410882 9.08179Z" fill="url(#paint2_linear_11347_241833)"/>
<mask id="mask1_11347_241833" style="mask-type:luminance" maskUnits="userSpaceOnUse" x="0" y="9" width="7" height="9">
<path d="M0.410882 9.08179C0.410882 9.08179 2.78436 12.2922 6.20382 12.6836L6.14584 17.3688C6.14584 17.3688 -0.589321 17.854 0.410882 9.08179Z" fill="white"/>
</mask>
<g mask="url(#mask1_11347_241833)">
<g filter="url(#filter1_d_11347_241833)">
<path d="M0.293273 8.71362C0.293273 8.71362 -0.0775113 16.4299 8.19419 14.9384L5.6338 18.4425L0.236816 15.7479L0.293273 8.71362Z" fill="url(#paint3_linear_11347_241833)"/>
</g>
<path d="M0.0928622 11.7502C0.0928622 11.7502 1.42113 17.3212 6.86007 16.4903L6.28329 17.9163L3.65881 17.9956L-0.184082 14.5014L0.0936251 11.7502H0.0928622Z" fill="url(#paint4_linear_11347_241833)"/>
</g>
<path d="M0 13.6823C0 13.6823 3.37216 15.8207 6.70235 14.9525L8.33808 19.3432C8.33808 19.3432 2.23005 22.2248 0 13.6823Z" fill="url(#paint5_linear_11347_241833)"/>
<mask id="mask2_11347_241833" style="mask-type:luminance" maskUnits="userSpaceOnUse" x="0" y="13" width="9" height="7">
<path d="M0 13.6823C0 13.6823 3.37216 15.8207 6.70235 14.9525L8.33808 19.3432C8.33808 19.3432 2.23005 22.2248 0 13.6823Z" fill="white"/>
</mask>
<g mask="url(#mask2_11347_241833)">
<g filter="url(#filter2_d_11347_241833)">
<path d="M-0.242188 13.3811C-0.242188 13.3811 2.19462 20.7121 9.37152 16.3382L8.24695 20.5298L2.24192 19.9622L-0.242188 13.3811Z" fill="url(#paint6_linear_11347_241833)"/>
</g>
<path d="M0.665527 16.2847C0.665527 16.2847 3.91256 21.0019 8.68699 18.2653L8.66334 19.8033L6.24408 20.8234L1.39947 18.9504L0.66629 16.2839L0.665527 16.2847Z" fill="url(#paint7_linear_11347_241833)"/>
</g>
<path d="M1.47754 18.2255C1.47754 18.2255 5.43639 18.7428 8.09063 16.5509L11.4254 19.8422C11.4254 19.8422 7.10263 25.0309 1.4783 18.2255H1.47754Z" fill="url(#paint8_linear_11347_241833)"/>
<mask id="mask3_11347_241833" style="mask-type:luminance" maskUnits="userSpaceOnUse" x="1" y="16" width="11" height="6">
<path d="M1.47754 18.2255C1.47754 18.2255 5.43639 18.7428 8.09063 16.5509L11.4254 19.8422C11.4254 19.8422 7.10263 25.0309 1.4783 18.2255H1.47754Z" fill="white"/>
</mask>
<g mask="url(#mask3_11347_241833)">
<g filter="url(#filter3_d_11347_241833)">
<path d="M1.13086 18.0546C1.13086 18.0546 6.43171 23.6744 11.0955 16.6821L11.8432 20.9568L6.15858 22.9748L1.13086 18.0546Z" fill="url(#paint9_linear_11347_241833)"/>
</g>
<path d="M3.17871 20.3053C3.17871 20.3053 8.11259 23.2128 11.2871 18.7184L11.9143 20.1237L10.1511 22.0692L4.96855 22.414L3.17947 20.306L3.17871 20.3053Z" fill="url(#paint10_linear_11347_241833)"/>
</g>
<path d="M27.2003 4.6803C27.2003 4.6803 25.5325 8.30804 22.2656 9.38988L23.2796 13.9644C23.2796 13.9644 29.972 13.0634 27.2003 4.6803Z" fill="url(#paint11_linear_11347_241833)"/>
<mask id="mask4_11347_241833" style="mask-type:luminance" maskUnits="userSpaceOnUse" x="22" y="4" width="6" height="10">
<path d="M27.2012 4.67993C27.2012 4.67993 25.5335 8.30767 22.2666 9.38951L23.2805 13.964C23.2805 13.964 29.973 13.063 27.2012 4.67993Z" fill="white"/>
</mask>
<g mask="url(#mask4_11347_241833)">
<g filter="url(#filter4_d_11347_241833)">
<path d="M27.2413 4.29565C27.2413 4.29565 29.1815 11.7731 20.7793 12.0043L24.0019 14.9111L28.7344 11.1704L27.2413 4.29565Z" fill="url(#paint12_linear_11347_241833)"/>
</g>
<path d="M28.0573 7.22672C28.0573 7.22672 27.8955 12.951 22.4009 13.2493L23.2569 14.5272L25.8417 14.0679L28.8904 9.86264L28.0565 7.22595L28.0573 7.22672Z" fill="url(#paint13_linear_11347_241833)"/>
</g>
<path d="M29.5898 9.08191C29.5898 9.08191 27.2163 12.2923 23.7969 12.6837L23.8549 17.3689C23.8549 17.3689 30.5908 17.8541 29.5906 9.08191H29.5898Z" fill="url(#paint14_linear_11347_241833)"/>
<mask id="mask5_11347_241833" style="mask-type:luminance" maskUnits="userSpaceOnUse" x="23" y="9" width="7" height="9">
<path d="M29.5888 9.08228C29.5888 9.08228 27.2154 12.2927 23.7959 12.6841L23.8539 17.3692C23.8539 17.3692 30.5898 17.8545 29.5896 9.08228H29.5888Z" fill="white"/>
</mask>
<g mask="url(#mask5_11347_241833)">
<g filter="url(#filter5_d_11347_241833)">
<path d="M29.7061 8.71375C29.7061 8.71375 30.0769 16.43 21.8052 14.9385L24.3656 18.4426L29.7626 15.748L29.7061 8.71375Z" fill="url(#paint15_linear_11347_241833)"/>
</g>
<path d="M29.9069 11.7502C29.9069 11.7502 28.5786 17.3212 23.1396 16.4903L23.7164 17.9163L26.3409 17.9956L30.1846 14.5014L29.9069 11.7502Z" fill="url(#paint16_linear_11347_241833)"/>
</g>
<path d="M30.0002 13.6823C30.0002 13.6823 26.628 15.8207 23.2978 14.9525L21.6621 19.3432C21.6621 19.3432 27.7694 22.2248 30.0002 13.6823Z" fill="url(#paint17_linear_11347_241833)"/>
<mask id="mask6_11347_241833" style="mask-type:luminance" maskUnits="userSpaceOnUse" x="21" y="13" width="9" height="7">
<path d="M30.0002 13.6823C30.0002 13.6823 26.628 15.8207 23.2978 14.9525L21.6621 19.3432C21.6621 19.3432 27.7694 22.2248 30.0002 13.6823Z" fill="white"/>
</mask>
<g mask="url(#mask6_11347_241833)">
<g filter="url(#filter6_d_11347_241833)">
<path d="M30.2436 13.3811C30.2436 13.3811 27.8068 20.7121 20.6299 16.3383L21.7544 20.5298L27.7595 19.9622L30.2436 13.3804V13.3811Z" fill="url(#paint18_linear_11347_241833)"/>
</g>
<path d="M29.3359 16.2848C29.3359 16.2848 26.0889 21.002 21.3145 18.2654L21.3381 19.8035L23.7574 20.8235L28.602 18.9505L29.3352 16.2841L29.3359 16.2848Z" fill="url(#paint19_linear_11347_241833)"/>
</g>
<path d="M28.5221 18.2255C28.5221 18.2255 24.5632 18.7428 21.909 16.5509L18.5742 19.8422C18.5742 19.8422 22.897 25.0309 28.5213 18.2255H28.5221Z" fill="url(#paint20_linear_11347_241833)"/>
<mask id="mask7_11347_241833" style="mask-type:luminance" maskUnits="userSpaceOnUse" x="18" y="16" width="11" height="6">
<path d="M28.5221 18.2255C28.5221 18.2255 24.5632 18.7428 21.909 16.5509L18.5742 19.8422C18.5742 19.8422 22.897 25.0309 28.5213 18.2255H28.5221Z" fill="white"/>
</mask>
<g mask="url(#mask7_11347_241833)">
<g filter="url(#filter7_d_11347_241833)">
<path d="M28.8691 18.0546C28.8691 18.0546 23.5682 23.6744 18.9044 16.6821L18.1567 20.9568L23.8413 22.9748L28.8691 18.0546Z" fill="url(#paint21_linear_11347_241833)"/>
</g>
<path d="M26.8205 20.3053C26.8205 20.3053 21.8866 23.2128 18.7121 18.7184L18.085 20.1237L19.8481 22.0692L25.0307 22.414L26.8198 20.306L26.8205 20.3053Z" fill="url(#paint22_linear_11347_241833)"/>
</g>
<g filter="url(#filter8_d_11347_241833)">
<path d="M14.9976 27.0177C14.9976 27.0177 24.5952 26.0648 26.025 12.6548C26.025 12.6548 23.3021 12.11 24.6639 7.75371C24.6639 7.75371 20.6478 3.125 15.0662 3.125H14.9304C9.34882 3.125 5.33275 7.75371 5.33275 7.75371C6.69382 12.11 3.97168 12.6548 3.97168 12.6548C5.40141 26.0648 14.9991 27.0177 14.9991 27.0177H14.9976Z" fill="url(#paint23_linear_11347_241833)"/>
</g>
<g filter="url(#filter9_d_11347_241833)">
<path d="M14.9978 27.0177C14.9978 27.0177 24.5955 26.0648 26.0252 12.6548C26.0252 12.6548 23.3023 12.11 24.6641 7.75371C24.6641 7.75371 20.6481 3.125 15.0665 3.125H14.9307" fill="url(#paint24_linear_11347_241833)"/>
</g>
<g filter="url(#filter10_d_11347_241833)">
<path d="M14.9979 24.9318C14.4173 24.8204 12.7786 24.41 11.0795 23.1222C8.50004 21.1668 6.85897 18.0952 6.19141 13.98C6.50421 13.7129 6.81243 13.3704 7.07793 12.9332C7.76228 11.8033 7.94233 10.3965 7.61656 8.73938C8.86777 7.63236 11.6136 5.60449 14.9308 5.60449H15.0666C18.3815 5.60449 21.1266 7.63084 22.3808 8.74014C22.055 10.3965 22.2343 11.8033 22.9194 12.9332C23.1842 13.3704 23.4932 13.7129 23.806 13.98C23.1376 18.0952 21.4966 21.1668 18.9171 23.1222C17.2188 24.41 15.58 24.8197 14.9987 24.9318H14.9979Z" fill="#F9BB58"/>
</g>
<g opacity="0.35">
<path d="M14.9975 24.233C14.3536 24.0956 12.9338 23.6859 11.4483 22.5599C9.068 20.7555 7.52154 17.9205 6.84863 14.1279C7.1355 13.8441 7.38726 13.5245 7.60012 13.1735C8.31423 11.9948 8.54158 10.5582 8.27837 8.89881C9.61121 7.77577 12.0488 6.13928 14.9304 6.13928H15.0662C17.947 6.13928 20.3853 7.77653 21.7182 8.89957C21.4542 10.5589 21.6823 11.9955 22.3964 13.1743C22.6093 13.5252 22.861 13.8457 23.1479 14.1287C22.4742 17.9205 20.9278 20.7563 18.5482 22.5606C17.0628 23.6867 15.6422 24.0964 14.999 24.2337L14.9975 24.233Z" fill="white"/>
</g>
<path d="M14.9975 24.3093C14.3536 24.1719 12.9338 23.7622 11.4483 22.6362C9.068 20.8318 7.52154 17.9968 6.84863 14.2042C7.1355 13.9204 7.38726 13.6008 7.60012 13.2498C8.31423 12.0711 8.54158 10.6345 8.27837 8.9751C9.61121 7.85206 12.0488 6.21558 14.9304 6.21558H15.0662C17.947 6.21558 20.3853 7.85283 21.7182 8.97586C21.4542 10.6352 21.6823 12.0718 22.3964 13.2506C22.6093 13.6015 22.861 13.9219 23.1479 14.205C22.4742 17.9968 20.9278 20.8326 18.5482 22.6369C17.0628 23.763 15.6422 24.1727 14.999 24.31L14.9975 24.3093Z" fill="url(#paint25_linear_11347_241833)"/>
<g style="mix-blend-mode:multiply" opacity="0.3">
<g opacity="0.35">
<path d="M14.9975 24.233C14.3536 24.0956 12.9338 23.6859 11.4483 22.5599C9.068 20.7555 7.52154 17.9205 6.84863 14.1279C7.1355 13.8441 7.38726 13.5245 7.60012 13.1735C8.31423 11.9948 8.54158 10.5582 8.27837 8.89881C9.61121 7.77577 12.0488 6.13928 14.9304 6.13928H15.0662C17.947 6.13928 20.3853 7.77653 21.7182 8.89957C21.4542 10.5589 21.6823 11.9955 22.3964 13.1743C22.6093 13.5252 22.861 13.8457 23.1479 14.1287C22.4742 17.9205 20.9278 20.7563 18.5482 22.5606C17.0628 23.6867 15.6422 24.0964 14.999 24.2337L14.9975 24.233Z" fill="#FC7315"/>
</g>
<path d="M14.9975 24.3093C14.3536 24.1719 12.9338 23.7622 11.4483 22.6362C9.068 20.8318 7.52154 17.9968 6.84863 14.2042C7.1355 13.9204 7.38726 13.6008 7.60012 13.2498C8.31423 12.0711 8.54158 10.6345 8.27837 8.9751C9.61121 7.85206 12.0488 6.21558 14.9304 6.21558H15.0662C17.947 6.21558 20.3853 7.85283 21.7182 8.97586C21.4542 10.6352 21.6823 12.0718 22.3964 13.2506C22.6093 13.6015 22.861 13.9219 23.1479 14.205C22.4742 17.9968 20.9278 20.8326 18.5482 22.6369C17.0628 23.763 15.6422 24.1727 14.999 24.31L14.9975 24.3093Z" fill="#FC7315"/>
</g>
<g filter="url(#filter11_d_11347_241833)">
<path d="M17.1112 10.1499V19.9925H13.4552V13.5243L11.3457 14.2278V11.1341L13.736 10.1499H17.1104H17.1112Z" fill="url(#paint26_linear_11347_241833)"/>
</g>
</g>
<defs>
<filter id="filter0_d_11347_241833" x="1.2666" y="4.29565" width="8.03137" height="10.6155" filterUnits="userSpaceOnUse" color-interpolation-filters="sRGB">
<feFlood flood-opacity="0" result="BackgroundImageFix"/>
<feColorMatrix in="SourceAlpha" type="matrix" values="0 0 0 0 0 0 0 0 0 0 0 0 0 0 0 0 0 0 127 0" result="hardAlpha"/>
<feOffset dx="0.0762932"/>
<feColorMatrix type="matrix" values="0 0 0 0 1 0 0 0 0 1 0 0 0 0 1 0 0 0 0.68 0"/>
<feBlend mode="normal" in2="BackgroundImageFix" result="effect1_dropShadow_11347_241833"/>
<feBlend mode="normal" in="SourceGraphic" in2="effect1_dropShadow_11347_241833" result="shape"/>
</filter>
<filter id="filter1_d_11347_241833" x="0.236816" y="8.71362" width="8.03381" height="9.72888" filterUnits="userSpaceOnUse" color-interpolation-filters="sRGB">
<feFlood flood-opacity="0" result="BackgroundImageFix"/>
<feColorMatrix in="SourceAlpha" type="matrix" values="0 0 0 0 0 0 0 0 0 0 0 0 0 0 0 0 0 0 127 0" result="hardAlpha"/>
<feOffset dx="0.0762932"/>
<feColorMatrix type="matrix" values="0 0 0 0 1 0 0 0 0 1 0 0 0 0 1 0 0 0 0.68 0"/>
<feBlend mode="normal" in2="BackgroundImageFix" result="effect1_dropShadow_11347_241833"/>
<feBlend mode="normal" in="SourceGraphic" in2="effect1_dropShadow_11347_241833" result="shape"/>
</filter>
<filter id="filter2_d_11347_241833" x="-0.242188" y="13.3811" width="9.69006" height="7.14868" filterUnits="userSpaceOnUse" color-interpolation-filters="sRGB">
<feFlood flood-opacity="0" result="BackgroundImageFix"/>
<feColorMatrix in="SourceAlpha" type="matrix" values="0 0 0 0 0 0 0 0 0 0 0 0 0 0 0 0 0 0 127 0" result="hardAlpha"/>
<feOffset dx="0.0762932"/>
<feColorMatrix type="matrix" values="0 0 0 0 1 0 0 0 0 1 0 0 0 0 1 0 0 0 0.68 0"/>
<feBlend mode="normal" in2="BackgroundImageFix" result="effect1_dropShadow_11347_241833"/>
<feBlend mode="normal" in="SourceGraphic" in2="effect1_dropShadow_11347_241833" result="shape"/>
</filter>
<filter id="filter3_d_11347_241833" x="1.13086" y="16.6821" width="10.7887" height="6.2926" filterUnits="userSpaceOnUse" color-interpolation-filters="sRGB">
<feFlood flood-opacity="0" result="BackgroundImageFix"/>
<feColorMatrix in="SourceAlpha" type="matrix" values="0 0 0 0 0 0 0 0 0 0 0 0 0 0 0 0 0 0 127 0" result="hardAlpha"/>
<feOffset dx="0.0762932"/>
<feColorMatrix type="matrix" values="0 0 0 0 1 0 0 0 0 1 0 0 0 0 1 0 0 0 0.68 0"/>
<feBlend mode="normal" in2="BackgroundImageFix" result="effect1_dropShadow_11347_241833"/>
<feBlend mode="normal" in="SourceGraphic" in2="effect1_dropShadow_11347_241833" result="shape"/>
</filter>
<filter id="filter4_d_11347_241833" x="20.6993" y="4.29565" width="8.03508" height="10.6155" filterUnits="userSpaceOnUse" color-interpolation-filters="sRGB">
<feFlood flood-opacity="0" result="BackgroundImageFix"/>
<feColorMatrix in="SourceAlpha" type="matrix" values="0 0 0 0 0 0 0 0 0 0 0 0 0 0 0 0 0 0 127 0" result="hardAlpha"/>
<feOffset dx="-0.08"/>
<feColorMatrix type="matrix" values="0 0 0 0 1 0 0 0 0 1 0 0 0 0 1 0 0 0 0.68 0"/>
<feBlend mode="normal" in2="BackgroundImageFix" result="effect1_dropShadow_11347_241833"/>
<feBlend mode="normal" in="SourceGraphic" in2="effect1_dropShadow_11347_241833" result="shape"/>
</filter>
<filter id="filter5_d_11347_241833" x="21.7252" y="8.71375" width="8.03752" height="9.72888" filterUnits="userSpaceOnUse" color-interpolation-filters="sRGB">
<feFlood flood-opacity="0" result="BackgroundImageFix"/>
<feColorMatrix in="SourceAlpha" type="matrix" values="0 0 0 0 0 0 0 0 0 0 0 0 0 0 0 0 0 0 127 0" result="hardAlpha"/>
<feOffset dx="-0.08"/>
<feColorMatrix type="matrix" values="0 0 0 0 1 0 0 0 0 1 0 0 0 0 1 0 0 0 0.68 0"/>
<feBlend mode="normal" in2="BackgroundImageFix" result="effect1_dropShadow_11347_241833"/>
<feBlend mode="normal" in="SourceGraphic" in2="effect1_dropShadow_11347_241833" result="shape"/>
</filter>
<filter id="filter6_d_11347_241833" x="20.5499" y="13.3804" width="9.69377" height="7.14941" filterUnits="userSpaceOnUse" color-interpolation-filters="sRGB">
<feFlood flood-opacity="0" result="BackgroundImageFix"/>
<feColorMatrix in="SourceAlpha" type="matrix" values="0 0 0 0 0 0 0 0 0 0 0 0 0 0 0 0 0 0 127 0" result="hardAlpha"/>
<feOffset dx="-0.08"/>
<feColorMatrix type="matrix" values="0 0 0 0 1 0 0 0 0 1 0 0 0 0 1 0 0 0 0.68 0"/>
<feBlend mode="normal" in2="BackgroundImageFix" result="effect1_dropShadow_11347_241833"/>
<feBlend mode="normal" in="SourceGraphic" in2="effect1_dropShadow_11347_241833" result="shape"/>
</filter>
<filter id="filter7_d_11347_241833" x="18.0767" y="16.6821" width="10.7924" height="6.2926" filterUnits="userSpaceOnUse" color-interpolation-filters="sRGB">
<feFlood flood-opacity="0" result="BackgroundImageFix"/>
<feColorMatrix in="SourceAlpha" type="matrix" values="0 0 0 0 0 0 0 0 0 0 0 0 0 0 0 0 0 0 127 0" result="hardAlpha"/>
<feOffset dx="-0.08"/>
<feColorMatrix type="matrix" values="0 0 0 0 1 0 0 0 0 1 0 0 0 0 1 0 0 0 0.68 0"/>
<feBlend mode="normal" in2="BackgroundImageFix" result="effect1_dropShadow_11347_241833"/>
<feBlend mode="normal" in="SourceGraphic" in2="effect1_dropShadow_11347_241833" result="shape"/>
</filter>
<filter id="filter8_d_11347_241833" x="2.14064" y="1.44655" width="25.7153" height="27.5548" filterUnits="userSpaceOnUse" color-interpolation-filters="sRGB">
<feFlood flood-opacity="0" result="BackgroundImageFix"/>
<feColorMatrix in="SourceAlpha" type="matrix" values="0 0 0 0 0 0 0 0 0 0 0 0 0 0 0 0 0 0 127 0" result="hardAlpha"/>
<feOffset dy="0.152586"/>
<feGaussianBlur stdDeviation="0.915518"/>
<feColorMatrix type="matrix" values="0 0 0 0 0.517647 0 0 0 0 0.309804 0 0 0 0 0.101961 0 0 0 0.68 0"/>
<feBlend mode="normal" in2="BackgroundImageFix" result="effect1_dropShadow_11347_241833"/>
<feBlend mode="normal" in="SourceGraphic" in2="effect1_dropShadow_11347_241833" result="shape"/>
</filter>
<filter id="filter9_d_11347_241833" x="14.8544" y="3.125" width="11.171" height="23.8927" filterUnits="userSpaceOnUse" color-interpolation-filters="sRGB">
<feFlood flood-opacity="0" result="BackgroundImageFix"/>
<feColorMatrix in="SourceAlpha" type="matrix" values="0 0 0 0 0 0 0 0 0 0 0 0 0 0 0 0 0 0 127 0" result="hardAlpha"/>
<feOffset dx="-0.0762932"/>
<feColorMatrix type="matrix" values="0 0 0 0 1 0 0 0 0 1 0 0 0 0 1 0 0 0 0.38 0"/>
<feBlend mode="normal" in2="BackgroundImageFix" result="effect1_dropShadow_11347_241833"/>
<feBlend mode="normal" in="SourceGraphic" in2="effect1_dropShadow_11347_241833" result="shape"/>
</filter>
<filter id="filter10_d_11347_241833" x="6.19141" y="5.60449" width="17.6147" height="19.48" filterUnits="userSpaceOnUse" color-interpolation-filters="sRGB">
<feFlood flood-opacity="0" result="BackgroundImageFix"/>
<feColorMatrix in="SourceAlpha" type="matrix" values="0 0 0 0 0 0 0 0 0 0 0 0 0 0 0 0 0 0 127 0" result="hardAlpha"/>
<feOffset dy="0.152586"/>
<feColorMatrix type="matrix" values="0 0 0 0 1 0 0 0 0 1 0 0 0 0 1 0 0 0 0.55 0"/>
<feBlend mode="normal" in2="BackgroundImageFix" result="effect1_dropShadow_11347_241833"/>
<feBlend mode="normal" in="SourceGraphic" in2="effect1_dropShadow_11347_241833" result="shape"/>
</filter>
<filter id="filter11_d_11347_241833" x="11.1931" y="10.1499" width="6.0708" height="10.224" filterUnits="userSpaceOnUse" color-interpolation-filters="sRGB">
<feFlood flood-opacity="0" result="BackgroundImageFix"/>
<feColorMatrix in="SourceAlpha" type="matrix" values="0 0 0 0 0 0 0 0 0 0 0 0 0 0 0 0 0 0 127 0" result="hardAlpha"/>
<feOffset dy="0.22888"/>
<feGaussianBlur stdDeviation="0.0762932"/>
<feColorMatrix type="matrix" values="0 0 0 0 0.8 0 0 0 0 0.435294 0 0 0 0 0 0 0 0 0.68 0"/>
<feBlend mode="normal" in2="BackgroundImageFix" result="effect1_dropShadow_11347_241833"/>
<feBlend mode="normal" in="SourceGraphic" in2="effect1_dropShadow_11347_241833" result="shape"/>
</filter>
<linearGradient id="paint0_linear_11347_241833" x1="1.76308" y1="6.30076" x2="6.198" y2="11.4979" gradientUnits="userSpaceOnUse">
<stop stop-color="#FDF3B9"/>
<stop offset="0.91" stop-color="#F8BA59"/>
</linearGradient>
<linearGradient id="paint1_linear_11347_241833" x1="1.28491" y1="6.87894" x2="6.82608" y2="13.3799" gradientUnits="userSpaceOnUse">
<stop offset="0.05" stop-color="#F79A00"/>
<stop offset="0.92" stop-color="#F78900"/>
</linearGradient>
<linearGradient id="paint2_linear_11347_241833" x1="-0.273393" y1="10.8805" x2="5.12986" y2="15.0618" gradientUnits="userSpaceOnUse">
<stop stop-color="#FDF3B9"/>
<stop offset="0.91" stop-color="#F8BA59"/>
</linearGradient>
<linearGradient id="paint3_linear_11347_241833" x1="-0.622277" y1="11.5437" x2="6.12971" y2="16.7762" gradientUnits="userSpaceOnUse">
<stop offset="0.05" stop-color="#F79A00"/>
<stop offset="0.92" stop-color="#F78900"/>
</linearGradient>
<linearGradient id="paint4_linear_11347_241833" x1="0.876879" y1="13.1615" x2="5.58526" y2="17.6281" gradientUnits="userSpaceOnUse">
<stop offset="0.07" stop-color="#EE7400"/>
<stop offset="0.91" stop-color="#F36200"/>
</linearGradient>
<linearGradient id="paint5_linear_11347_241833" x1="0.010115" y1="15.605" x2="6.55771" y2="17.5562" gradientUnits="userSpaceOnUse">
<stop stop-color="#FDF3B9"/>
<stop offset="0.91" stop-color="#F8BA59"/>
</linearGradient>
<linearGradient id="paint6_linear_11347_241833" x1="-0.0753092" y1="16.3498" x2="8.10896" y2="18.7945" gradientUnits="userSpaceOnUse">
<stop offset="0.05" stop-color="#F79A00"/>
<stop offset="0.92" stop-color="#F78900"/>
</linearGradient>
<linearGradient id="paint7_linear_11347_241833" x1="1.90596" y1="17.3179" x2="7.90835" y2="19.7859" gradientUnits="userSpaceOnUse">
<stop offset="0.07" stop-color="#EE7400"/>
<stop offset="0.91" stop-color="#F36200"/>
</linearGradient>
<linearGradient id="paint8_linear_11347_241833" x1="2.2977" y1="19.9654" x2="9.0571" y2="18.9744" gradientUnits="userSpaceOnUse">
<stop stop-color="#FDF3B9"/>
<stop offset="0.91" stop-color="#F8BA59"/>
</linearGradient>
<linearGradient id="paint9_linear_11347_241833" x1="2.53388" y1="20.6775" x2="10.9858" y2="19.4431" gradientUnits="userSpaceOnUse">
<stop offset="0.05" stop-color="#F79A00"/>
<stop offset="0.92" stop-color="#F78900"/>
</linearGradient>
<linearGradient id="paint10_linear_11347_241833" x1="4.73896" y1="20.7199" x2="11.2216" y2="20.4262" gradientUnits="userSpaceOnUse">
<stop offset="0.07" stop-color="#EE7400"/>
<stop offset="0.91" stop-color="#F36200"/>
</linearGradient>
<linearGradient id="paint11_linear_11347_241833" x1="28.2371" y1="6.30076" x2="23.8022" y2="11.4979" gradientUnits="userSpaceOnUse">
<stop stop-color="#FDF3B9"/>
<stop offset="0.91" stop-color="#F8BA59"/>
</linearGradient>
<linearGradient id="paint12_linear_11347_241833" x1="28.7161" y1="0.499306" x2="23.1749" y2="13.3799" gradientUnits="userSpaceOnUse">
<stop offset="0.05" stop-color="#F79A00"/>
<stop offset="0.92" stop-color="#F78900"/>
</linearGradient>
<linearGradient id="paint13_linear_11347_241833" x1="27.5781" y1="8.76784" x2="23.8817" y2="14.1023" gradientUnits="userSpaceOnUse">
<stop offset="0.07" stop-color="#EE7400"/>
<stop offset="0.91" stop-color="#F36200"/>
</linearGradient>
<linearGradient id="paint14_linear_11347_241833" x1="30.2735" y1="10.8817" x2="24.8704" y2="15.0622" gradientUnits="userSpaceOnUse">
<stop stop-color="#FDF3B9"/>
<stop offset="0.91" stop-color="#F8BA59"/>
</linearGradient>
<linearGradient id="paint15_linear_11347_241833" x1="29.7442" y1="5.23444" x2="24.9716" y2="17.3429" gradientUnits="userSpaceOnUse">
<stop offset="0.05" stop-color="#F79A00"/>
<stop offset="0.92" stop-color="#F78900"/>
</linearGradient>
<linearGradient id="paint16_linear_11347_241833" x1="29.1231" y1="13.1625" x2="24.4147" y2="17.6291" gradientUnits="userSpaceOnUse">
<stop offset="0.07" stop-color="#EE7400"/>
<stop offset="0.91" stop-color="#F36200"/>
</linearGradient>
<linearGradient id="paint17_linear_11347_241833" x1="29.9894" y1="15.6051" x2="23.4418" y2="17.5564" gradientUnits="userSpaceOnUse">
<stop stop-color="#FDF3B9"/>
<stop offset="0.91" stop-color="#F8BA59"/>
</linearGradient>
<linearGradient id="paint18_linear_11347_241833" x1="30.2215" y1="10.8236" x2="27.8907" y2="20.5452" gradientUnits="userSpaceOnUse">
<stop offset="0.05" stop-color="#F79A00"/>
<stop offset="0.92" stop-color="#F78900"/>
</linearGradient>
<linearGradient id="paint19_linear_11347_241833" x1="28.0953" y1="17.3175" x2="22.0929" y2="19.7855" gradientUnits="userSpaceOnUse">
<stop offset="0.07" stop-color="#EE7400"/>
<stop offset="0.91" stop-color="#F36200"/>
</linearGradient>
<linearGradient id="paint20_linear_11347_241833" x1="27.7012" y1="19.9665" x2="20.9414" y2="18.9748" gradientUnits="userSpaceOnUse">
<stop stop-color="#FDF3B9"/>
<stop offset="0.91" stop-color="#F8BA59"/>
</linearGradient>
<linearGradient id="paint21_linear_11347_241833" x1="28.8444" y1="14.4317" x2="27.1902" y2="23.1669" gradientUnits="userSpaceOnUse">
<stop offset="0.05" stop-color="#F79A00"/>
<stop offset="0.92" stop-color="#F78900"/>
</linearGradient>
<linearGradient id="paint22_linear_11347_241833" x1="25.2605" y1="20.7198" x2="18.7772" y2="20.4266" gradientUnits="userSpaceOnUse">
<stop offset="0.07" stop-color="#EE7400"/>
<stop offset="0.91" stop-color="#F36200"/>
</linearGradient>
<linearGradient id="paint23_linear_11347_241833" x1="14.9976" y1="3.55529" x2="14.9976" y2="26.0816" gradientUnits="userSpaceOnUse">
<stop stop-color="#FFFDEE"/>
<stop offset="0.99" stop-color="#F7C95D"/>
</linearGradient>
<linearGradient id="paint24_linear_11347_241833" x1="20.4779" y1="3.88946" x2="20.4779" y2="26.2083" gradientUnits="userSpaceOnUse">
<stop stop-color="#FBDC86"/>
<stop offset="0.99" stop-color="#F3B453"/>
</linearGradient>
<linearGradient id="paint25_linear_11347_241833" x1="14.9975" y1="6.79846" x2="14.9975" y2="23.0977" gradientUnits="userSpaceOnUse">
<stop stop-color="#D25500"/>
<stop offset="0.99" stop-color="#EC9100"/>
</linearGradient>
<linearGradient id="paint26_linear_11347_241833" x1="14.2288" y1="10.7648" x2="14.2288" y2="19.3051" gradientUnits="userSpaceOnUse">
<stop offset="0.02" stop-color="#FFFDEE"/>
<stop offset="1" stop-color="#FCE689"/>
</linearGradient>
<clipPath id="clip0_11347_241833">
<rect width="30" height="30" fill="white"/>
</clipPath>
</defs>
</svg>
