<svg width="30" height="30" viewBox="0 0 30 30" fill="none" xmlns="http://www.w3.org/2000/svg">
<g clip-path="url(#clip0_11347_241844)">
<path d="M2.79969 4.68018C2.79969 4.68018 4.46746 8.30792 7.73433 9.38975L6.7204 13.9643C6.74252 14.0673 0.0920444 13.3669 2.79969 4.68018Z" fill="url(#paint0_linear_11347_241844)"/>
<mask id="mask0_11347_241844" style="mask-type:luminance" maskUnits="userSpaceOnUse" x="2" y="4" width="6" height="10">
<path d="M2.79969 4.68018C2.79969 4.68018 4.46746 8.30792 7.73433 9.38975L6.7204 13.9643C6.74252 14.0673 0.0920444 13.3669 2.79969 4.68018Z" fill="white"/>
</mask>
<g mask="url(#mask0_11347_241844)">
<g filter="url(#filter0_d_11347_241844)">
<path d="M2.75966 4.29553C2.75966 4.29553 0.819524 11.773 9.22169 12.0042L5.99907 14.911L1.2666 11.1703L2.75966 4.29553Z" fill="url(#paint1_linear_11347_241844)"/>
</g>
<path d="M1.94298 7.22659C1.94298 7.22659 2.10473 12.9509 7.59936 13.2492L6.74335 14.5271L4.15854 14.0678L1.10986 9.86252L1.94375 7.22583L1.94298 7.22659Z" fill="url(#paint2_linear_11347_241844)"/>
</g>
<path d="M0.410882 9.08154C0.410882 9.08154 2.78436 12.292 6.20382 12.6833L6.14584 17.3685C6.14584 17.3685 -0.589321 17.8537 0.410882 9.08154Z" fill="url(#paint3_linear_11347_241844)"/>
<mask id="mask1_11347_241844" style="mask-type:luminance" maskUnits="userSpaceOnUse" x="0" y="9" width="7" height="9">
<path d="M0.410882 9.08154C0.410882 9.08154 2.78436 12.292 6.20382 12.6833L6.14584 17.3685C6.14584 17.3685 -0.589321 17.8537 0.410882 9.08154Z" fill="white"/>
</mask>
<g mask="url(#mask1_11347_241844)">
<g filter="url(#filter1_d_11347_241844)">
<path d="M0.293762 8.71338C0.293762 8.71338 -0.0770228 16.4297 8.19468 14.9381L5.63428 18.4423L0.237305 15.7476L0.293762 8.71338Z" fill="url(#paint4_linear_11347_241844)"/>
</g>
<path d="M0.0928622 11.7499C0.0928622 11.7499 1.42113 17.3208 6.86007 16.49L6.28329 17.9159L3.65881 17.9952L-0.184082 14.501L0.0936251 11.7499H0.0928622Z" fill="url(#paint5_linear_11347_241844)"/>
</g>
<path d="M0 13.682C0 13.682 3.37216 15.8205 6.70235 14.9523L8.33808 19.343C8.33808 19.343 2.23005 22.2246 0 13.682Z" fill="url(#paint6_linear_11347_241844)"/>
<mask id="mask2_11347_241844" style="mask-type:luminance" maskUnits="userSpaceOnUse" x="0" y="13" width="9" height="7">
<path d="M0 13.682C0 13.682 3.37216 15.8205 6.70235 14.9523L8.33808 19.343C8.33808 19.343 2.23005 22.2246 0 13.682Z" fill="white"/>
</mask>
<g mask="url(#mask2_11347_241844)">
<g filter="url(#filter2_d_11347_241844)">
<path d="M-0.242188 13.3809C-0.242188 13.3809 2.19462 20.7119 9.37152 16.338L8.24695 20.5295L2.24192 19.9619L-0.242188 13.3809Z" fill="url(#paint7_linear_11347_241844)"/>
</g>
<path d="M0.665039 16.2847C0.665039 16.2847 3.91208 21.0019 8.6865 18.2653L8.66285 19.8033L6.24359 20.8234L1.39898 18.9504L0.665802 16.2839L0.665039 16.2847Z" fill="url(#paint8_linear_11347_241844)"/>
</g>
<path d="M1.47754 18.2253C1.47754 18.2253 5.43639 18.7426 8.09063 16.5507L11.4254 19.8419C11.4254 19.8419 7.10263 25.0306 1.4783 18.2253H1.47754Z" fill="url(#paint9_linear_11347_241844)"/>
<mask id="mask3_11347_241844" style="mask-type:luminance" maskUnits="userSpaceOnUse" x="1" y="16" width="11" height="6">
<path d="M1.47754 18.2253C1.47754 18.2253 5.43639 18.7426 8.09063 16.5507L11.4254 19.8419C11.4254 19.8419 7.10263 25.0306 1.4783 18.2253H1.47754Z" fill="white"/>
</mask>
<g mask="url(#mask3_11347_241844)">
<g filter="url(#filter3_d_11347_241844)">
<path d="M1.12988 18.0545C1.12988 18.0545 6.43073 23.6743 11.0945 16.682L11.8422 20.9567L6.1576 22.9747L1.12988 18.0545Z" fill="url(#paint10_linear_11347_241844)"/>
</g>
<path d="M3.17773 20.305C3.17773 20.305 8.11161 23.2126 11.2862 18.7181L11.9133 20.1235L10.1502 22.0689L4.96757 22.4138L3.1785 20.3058L3.17773 20.305Z" fill="url(#paint11_linear_11347_241844)"/>
</g>
<path d="M27.2003 4.68005C27.2003 4.68005 25.5325 8.30779 22.2656 9.38963L23.2796 13.9642C23.2574 14.0672 29.9079 13.3668 27.2003 4.68005Z" fill="url(#paint12_linear_11347_241844)"/>
<mask id="mask4_11347_241844" style="mask-type:luminance" maskUnits="userSpaceOnUse" x="22" y="4" width="6" height="10">
<path d="M27.2012 4.67969C27.2012 4.67969 25.5335 8.30743 22.2666 9.38927L23.2805 13.9638C23.2584 14.0668 29.9089 13.3664 27.2012 4.67969Z" fill="white"/>
</mask>
<g mask="url(#mask4_11347_241844)">
<g filter="url(#filter4_d_11347_241844)">
<path d="M27.2413 4.29541C27.2413 4.29541 29.1815 11.7729 20.7793 12.0041L24.0019 14.9108L28.7344 11.1702L27.2413 4.29541Z" fill="url(#paint13_linear_11347_241844)"/>
</g>
<path d="M28.0573 7.22647C28.0573 7.22647 27.8955 12.9507 22.4009 13.2491L23.2569 14.527L25.8417 14.0677L28.8904 9.8624L28.0565 7.22571L28.0573 7.22647Z" fill="url(#paint14_linear_11347_241844)"/>
</g>
<path d="M29.5888 9.08167C29.5888 9.08167 27.2154 12.2921 23.7959 12.6835L23.8539 17.3686C23.8539 17.3686 30.5898 17.8539 29.5896 9.08167H29.5888Z" fill="url(#paint15_linear_11347_241844)"/>
<mask id="mask5_11347_241844" style="mask-type:luminance" maskUnits="userSpaceOnUse" x="23" y="9" width="7" height="9">
<path d="M29.5879 9.08203C29.5879 9.08203 27.2144 12.2924 23.7949 12.6838L23.8529 17.369C23.8529 17.369 30.5888 17.8542 29.5886 9.08203H29.5879Z" fill="white"/>
</mask>
<g mask="url(#mask5_11347_241844)">
<g filter="url(#filter5_d_11347_241844)">
<path d="M29.7051 8.7135C29.7051 8.7135 30.0759 16.4298 21.8042 14.9383L24.3646 18.4424L29.7616 15.7477L29.7051 8.7135Z" fill="url(#paint16_linear_11347_241844)"/>
</g>
<path d="M29.9059 11.75C29.9059 11.75 28.5776 17.3209 23.1387 16.4901L23.7154 17.916L26.3399 17.9954L30.1836 14.5011L29.9059 11.75Z" fill="url(#paint17_linear_11347_241844)"/>
</g>
<path d="M30.0002 13.682C30.0002 13.682 26.628 15.8205 23.2978 14.9523L21.6621 19.343C21.6621 19.343 27.7694 22.2246 30.0002 13.682Z" fill="url(#paint18_linear_11347_241844)"/>
<mask id="mask6_11347_241844" style="mask-type:luminance" maskUnits="userSpaceOnUse" x="21" y="13" width="9" height="7">
<path d="M30.0002 13.682C30.0002 13.682 26.628 15.8205 23.2978 14.9523L21.6621 19.343C21.6621 19.343 27.7694 22.2246 30.0002 13.682Z" fill="white"/>
</mask>
<g mask="url(#mask6_11347_241844)">
<g filter="url(#filter6_d_11347_241844)">
<path d="M30.2436 13.381C30.2436 13.381 27.8068 20.712 20.6299 16.3381L21.7544 20.5297L27.7595 19.9621L30.2436 13.3802V13.381Z" fill="url(#paint19_linear_11347_241844)"/>
</g>
<path d="M29.3354 16.2847C29.3354 16.2847 26.0884 21.0019 21.314 18.2653L21.3376 19.8033L23.7569 20.8234L28.6015 18.9504L29.3347 16.2839L29.3354 16.2847Z" fill="url(#paint20_linear_11347_241844)"/>
</g>
<path d="M28.5221 18.2253C28.5221 18.2253 24.5632 18.7426 21.909 16.5507L18.5742 19.8419C18.5742 19.8419 22.897 25.0306 28.5213 18.2253H28.5221Z" fill="url(#paint21_linear_11347_241844)"/>
<mask id="mask7_11347_241844" style="mask-type:luminance" maskUnits="userSpaceOnUse" x="18" y="16" width="11" height="6">
<path d="M28.5221 18.2253C28.5221 18.2253 24.5632 18.7426 21.909 16.5507L18.5742 19.8419C18.5742 19.8419 22.897 25.0306 28.5213 18.2253H28.5221Z" fill="white"/>
</mask>
<g mask="url(#mask7_11347_241844)">
<g filter="url(#filter7_d_11347_241844)">
<path d="M28.8695 18.0545C28.8695 18.0545 23.5687 23.6743 18.9049 16.682L18.1572 20.9567L23.8418 22.9747L28.8695 18.0545Z" fill="url(#paint22_linear_11347_241844)"/>
</g>
<path d="M26.8215 20.305C26.8215 20.305 21.8876 23.2126 18.7131 18.7181L18.0859 20.1235L19.8491 22.0689L25.0317 22.4138L26.8207 20.3058L26.8215 20.305Z" fill="url(#paint23_linear_11347_241844)"/>
</g>
<g filter="url(#filter8_d_11347_241844)">
<path d="M14.9976 27.0177C14.9976 27.0177 24.5952 26.0648 26.025 12.6548C26.025 12.6548 23.3021 12.11 24.6639 7.75371C24.6639 7.75371 20.6478 3.125 15.0662 3.125H14.9304C9.34882 3.125 5.33275 7.75371 5.33275 7.75371C6.69382 12.11 3.97168 12.6548 3.97168 12.6548C5.40141 26.0648 14.9991 27.0177 14.9991 27.0177H14.9976Z" fill="url(#paint24_linear_11347_241844)"/>
</g>
<g filter="url(#filter9_d_11347_241844)">
<path d="M14.9978 27.0177C14.9978 27.0177 24.5955 26.0648 26.0252 12.6548C26.0252 12.6548 23.3023 12.11 24.6641 7.75371C24.6641 7.75371 20.6481 3.125 15.0665 3.125H14.9307" fill="url(#paint25_linear_11347_241844)"/>
</g>
<g filter="url(#filter10_d_11347_241844)">
<path d="M14.9979 24.9318C14.4173 24.8204 12.7786 24.41 11.0795 23.1222C8.50004 21.1668 6.85897 18.0952 6.19141 13.98C6.50421 13.7129 6.81243 13.3704 7.07793 12.9332C7.76228 11.8033 7.94233 10.3965 7.61656 8.73938C8.86777 7.63236 11.6136 5.60449 14.9308 5.60449H15.0666C18.3815 5.60449 21.1266 7.63084 22.3808 8.74014C22.055 10.3965 22.2343 11.8033 22.9194 12.9332C23.1842 13.3704 23.4932 13.7129 23.806 13.98C23.1376 18.0952 21.4966 21.1668 18.9171 23.1222C17.2188 24.41 15.58 24.8197 14.9987 24.9318H14.9979Z" fill="#8DA4D5"/>
</g>
<g opacity="0.35">
<path d="M14.9975 24.2328C14.3536 24.0955 12.9338 23.6858 11.4483 22.5597C9.068 20.7554 7.52154 17.9204 6.84863 14.1278C7.1355 13.844 7.38726 13.5243 7.60012 13.1734C8.31423 11.9947 8.54158 10.5581 8.27837 8.89868C9.61121 7.77565 12.0488 6.13916 14.9304 6.13916H15.0662C17.947 6.13916 20.3853 7.77641 21.7182 8.89945C21.4542 10.5588 21.6823 11.9954 22.3964 13.1742C22.6093 13.5251 22.861 13.8455 23.1479 14.1286C22.4742 17.9204 20.9278 20.7562 18.5482 22.5605C17.0628 23.6866 15.6422 24.0963 14.999 24.2336L14.9975 24.2328Z" fill="white"/>
</g>
<path d="M14.9975 24.3093C14.3536 24.1719 12.9338 23.7622 11.4483 22.6362C9.068 20.8318 7.52154 17.9968 6.84863 14.2042C7.1355 13.9204 7.38726 13.6008 7.60012 13.2498C8.31423 12.0711 8.54158 10.6345 8.27837 8.9751C9.61121 7.85206 12.0488 6.21558 14.9304 6.21558H15.0662C17.947 6.21558 20.3853 7.85283 21.7182 8.97586C21.4542 10.6352 21.6823 12.0718 22.3964 13.2506C22.6093 13.6015 22.861 13.9219 23.1479 14.205C22.4742 17.9968 20.9278 20.8326 18.5482 22.6369C17.0628 23.763 15.6422 24.1727 14.999 24.31L14.9975 24.3093Z" fill="url(#paint26_linear_11347_241844)"/>
<g style="mix-blend-mode:multiply" opacity="0.3">
<g opacity="0.35">
<path d="M14.9975 24.2328C14.3536 24.0955 12.9338 23.6858 11.4483 22.5597C9.068 20.7554 7.52154 17.9204 6.84863 14.1278C7.1355 13.844 7.38726 13.5243 7.60012 13.1734C8.31423 11.9947 8.54158 10.5581 8.27837 8.89868C9.61121 7.77565 12.0488 6.13916 14.9304 6.13916H15.0662C17.947 6.13916 20.3853 7.77641 21.7182 8.89945C21.4542 10.5588 21.6823 11.9954 22.3964 13.1742C22.6093 13.5251 22.861 13.8455 23.1479 14.1286C22.4742 17.9204 20.9278 20.7562 18.5482 22.5605C17.0628 23.6866 15.6422 24.0963 14.999 24.2336L14.9975 24.2328Z" fill="#2F3F84"/>
</g>
<path d="M14.9975 24.3093C14.3536 24.1719 12.9338 23.7622 11.4483 22.6362C9.068 20.8318 7.52154 17.9968 6.84863 14.2042C7.1355 13.9204 7.38726 13.6008 7.60012 13.2498C8.31423 12.0711 8.54158 10.6345 8.27837 8.9751C9.61121 7.85206 12.0488 6.21558 14.9304 6.21558H15.0662C17.947 6.21558 20.3853 7.85283 21.7182 8.97586C21.4542 10.6352 21.6823 12.0718 22.3964 13.2506C22.6093 13.6015 22.861 13.9219 23.1479 14.205C22.4742 17.9968 20.9278 20.8326 18.5482 22.6369C17.0628 23.763 15.6422 24.1727 14.999 24.31L14.9975 24.3093Z" fill="#2F3F84"/>
</g>
<g filter="url(#filter11_d_11347_241844)">
<path d="M15.9398 16.756H18.7229V19.8176H11.2073V17.0344C11.2073 17.0344 15.1044 14.6686 15.1044 13.4159C15.1044 12.9985 14.8259 12.7201 14.3391 12.7201C13.1558 12.7201 12.3212 13.4853 12.3212 13.4853L10.999 11.3979C10.999 11.3979 12.2518 9.8667 14.8961 9.8667C17.3314 9.8667 18.8626 11.3979 18.8626 12.9978C18.8626 15.3636 15.9398 16.7552 15.9398 16.7552V16.756Z" fill="url(#paint27_linear_11347_241844)"/>
</g>
</g>
<defs>
<filter id="filter0_d_11347_241844" x="1.2666" y="4.29553" width="8.03137" height="10.6155" filterUnits="userSpaceOnUse" color-interpolation-filters="sRGB">
<feFlood flood-opacity="0" result="BackgroundImageFix"/>
<feColorMatrix in="SourceAlpha" type="matrix" values="0 0 0 0 0 0 0 0 0 0 0 0 0 0 0 0 0 0 127 0" result="hardAlpha"/>
<feOffset dx="0.0762932"/>
<feColorMatrix type="matrix" values="0 0 0 0 1 0 0 0 0 1 0 0 0 0 1 0 0 0 0.68 0"/>
<feBlend mode="normal" in2="BackgroundImageFix" result="effect1_dropShadow_11347_241844"/>
<feBlend mode="normal" in="SourceGraphic" in2="effect1_dropShadow_11347_241844" result="shape"/>
</filter>
<filter id="filter1_d_11347_241844" x="0.237305" y="8.71338" width="8.03381" height="9.72888" filterUnits="userSpaceOnUse" color-interpolation-filters="sRGB">
<feFlood flood-opacity="0" result="BackgroundImageFix"/>
<feColorMatrix in="SourceAlpha" type="matrix" values="0 0 0 0 0 0 0 0 0 0 0 0 0 0 0 0 0 0 127 0" result="hardAlpha"/>
<feOffset dx="0.0762932"/>
<feColorMatrix type="matrix" values="0 0 0 0 1 0 0 0 0 1 0 0 0 0 1 0 0 0 0.68 0"/>
<feBlend mode="normal" in2="BackgroundImageFix" result="effect1_dropShadow_11347_241844"/>
<feBlend mode="normal" in="SourceGraphic" in2="effect1_dropShadow_11347_241844" result="shape"/>
</filter>
<filter id="filter2_d_11347_241844" x="-0.242188" y="13.3809" width="9.69006" height="7.14868" filterUnits="userSpaceOnUse" color-interpolation-filters="sRGB">
<feFlood flood-opacity="0" result="BackgroundImageFix"/>
<feColorMatrix in="SourceAlpha" type="matrix" values="0 0 0 0 0 0 0 0 0 0 0 0 0 0 0 0 0 0 127 0" result="hardAlpha"/>
<feOffset dx="0.0762932"/>
<feColorMatrix type="matrix" values="0 0 0 0 1 0 0 0 0 1 0 0 0 0 1 0 0 0 0.68 0"/>
<feBlend mode="normal" in2="BackgroundImageFix" result="effect1_dropShadow_11347_241844"/>
<feBlend mode="normal" in="SourceGraphic" in2="effect1_dropShadow_11347_241844" result="shape"/>
</filter>
<filter id="filter3_d_11347_241844" x="1.12988" y="16.682" width="10.7887" height="6.2926" filterUnits="userSpaceOnUse" color-interpolation-filters="sRGB">
<feFlood flood-opacity="0" result="BackgroundImageFix"/>
<feColorMatrix in="SourceAlpha" type="matrix" values="0 0 0 0 0 0 0 0 0 0 0 0 0 0 0 0 0 0 127 0" result="hardAlpha"/>
<feOffset dx="0.0762932"/>
<feColorMatrix type="matrix" values="0 0 0 0 1 0 0 0 0 1 0 0 0 0 1 0 0 0 0.68 0"/>
<feBlend mode="normal" in2="BackgroundImageFix" result="effect1_dropShadow_11347_241844"/>
<feBlend mode="normal" in="SourceGraphic" in2="effect1_dropShadow_11347_241844" result="shape"/>
</filter>
<filter id="filter4_d_11347_241844" x="20.7793" y="4.29541" width="8.03137" height="10.6155" filterUnits="userSpaceOnUse" color-interpolation-filters="sRGB">
<feFlood flood-opacity="0" result="BackgroundImageFix"/>
<feColorMatrix in="SourceAlpha" type="matrix" values="0 0 0 0 0 0 0 0 0 0 0 0 0 0 0 0 0 0 127 0" result="hardAlpha"/>
<feOffset dx="0.0762932"/>
<feColorMatrix type="matrix" values="0 0 0 0 1 0 0 0 0 1 0 0 0 0 1 0 0 0 0.68 0"/>
<feBlend mode="normal" in2="BackgroundImageFix" result="effect1_dropShadow_11347_241844"/>
<feBlend mode="normal" in="SourceGraphic" in2="effect1_dropShadow_11347_241844" result="shape"/>
</filter>
<filter id="filter5_d_11347_241844" x="21.8042" y="8.7135" width="8.03381" height="9.72888" filterUnits="userSpaceOnUse" color-interpolation-filters="sRGB">
<feFlood flood-opacity="0" result="BackgroundImageFix"/>
<feColorMatrix in="SourceAlpha" type="matrix" values="0 0 0 0 0 0 0 0 0 0 0 0 0 0 0 0 0 0 127 0" result="hardAlpha"/>
<feOffset dx="0.0762932"/>
<feColorMatrix type="matrix" values="0 0 0 0 1 0 0 0 0 1 0 0 0 0 1 0 0 0 0.68 0"/>
<feBlend mode="normal" in2="BackgroundImageFix" result="effect1_dropShadow_11347_241844"/>
<feBlend mode="normal" in="SourceGraphic" in2="effect1_dropShadow_11347_241844" result="shape"/>
</filter>
<filter id="filter6_d_11347_241844" x="20.6299" y="13.3802" width="9.69006" height="7.14941" filterUnits="userSpaceOnUse" color-interpolation-filters="sRGB">
<feFlood flood-opacity="0" result="BackgroundImageFix"/>
<feColorMatrix in="SourceAlpha" type="matrix" values="0 0 0 0 0 0 0 0 0 0 0 0 0 0 0 0 0 0 127 0" result="hardAlpha"/>
<feOffset dx="0.0762932"/>
<feColorMatrix type="matrix" values="0 0 0 0 1 0 0 0 0 1 0 0 0 0 1 0 0 0 0.68 0"/>
<feBlend mode="normal" in2="BackgroundImageFix" result="effect1_dropShadow_11347_241844"/>
<feBlend mode="normal" in="SourceGraphic" in2="effect1_dropShadow_11347_241844" result="shape"/>
</filter>
<filter id="filter7_d_11347_241844" x="18.1572" y="16.682" width="10.7887" height="6.2926" filterUnits="userSpaceOnUse" color-interpolation-filters="sRGB">
<feFlood flood-opacity="0" result="BackgroundImageFix"/>
<feColorMatrix in="SourceAlpha" type="matrix" values="0 0 0 0 0 0 0 0 0 0 0 0 0 0 0 0 0 0 127 0" result="hardAlpha"/>
<feOffset dx="0.0762932"/>
<feColorMatrix type="matrix" values="0 0 0 0 1 0 0 0 0 1 0 0 0 0 1 0 0 0 0.68 0"/>
<feBlend mode="normal" in2="BackgroundImageFix" result="effect1_dropShadow_11347_241844"/>
<feBlend mode="normal" in="SourceGraphic" in2="effect1_dropShadow_11347_241844" result="shape"/>
</filter>
<filter id="filter8_d_11347_241844" x="2.14064" y="1.44655" width="25.7153" height="27.5548" filterUnits="userSpaceOnUse" color-interpolation-filters="sRGB">
<feFlood flood-opacity="0" result="BackgroundImageFix"/>
<feColorMatrix in="SourceAlpha" type="matrix" values="0 0 0 0 0 0 0 0 0 0 0 0 0 0 0 0 0 0 127 0" result="hardAlpha"/>
<feOffset dy="0.152586"/>
<feGaussianBlur stdDeviation="0.915518"/>
<feColorMatrix type="matrix" values="0 0 0 0 0.152941 0 0 0 0 0.227451 0 0 0 0 0.419608 0 0 0 0.68 0"/>
<feBlend mode="normal" in2="BackgroundImageFix" result="effect1_dropShadow_11347_241844"/>
<feBlend mode="normal" in="SourceGraphic" in2="effect1_dropShadow_11347_241844" result="shape"/>
</filter>
<filter id="filter9_d_11347_241844" x="14.8544" y="3.125" width="11.171" height="23.8927" filterUnits="userSpaceOnUse" color-interpolation-filters="sRGB">
<feFlood flood-opacity="0" result="BackgroundImageFix"/>
<feColorMatrix in="SourceAlpha" type="matrix" values="0 0 0 0 0 0 0 0 0 0 0 0 0 0 0 0 0 0 127 0" result="hardAlpha"/>
<feOffset dx="-0.0762932"/>
<feColorMatrix type="matrix" values="0 0 0 0 1 0 0 0 0 1 0 0 0 0 1 0 0 0 0.38 0"/>
<feBlend mode="normal" in2="BackgroundImageFix" result="effect1_dropShadow_11347_241844"/>
<feBlend mode="normal" in="SourceGraphic" in2="effect1_dropShadow_11347_241844" result="shape"/>
</filter>
<filter id="filter10_d_11347_241844" x="6.19141" y="5.60449" width="17.6147" height="19.48" filterUnits="userSpaceOnUse" color-interpolation-filters="sRGB">
<feFlood flood-opacity="0" result="BackgroundImageFix"/>
<feColorMatrix in="SourceAlpha" type="matrix" values="0 0 0 0 0 0 0 0 0 0 0 0 0 0 0 0 0 0 127 0" result="hardAlpha"/>
<feOffset dy="0.152586"/>
<feColorMatrix type="matrix" values="0 0 0 0 1 0 0 0 0 1 0 0 0 0 1 0 0 0 0.55 0"/>
<feBlend mode="normal" in2="BackgroundImageFix" result="effect1_dropShadow_11347_241844"/>
<feBlend mode="normal" in="SourceGraphic" in2="effect1_dropShadow_11347_241844" result="shape"/>
</filter>
<filter id="filter11_d_11347_241844" x="10.8464" y="9.8667" width="8.16894" height="10.3324" filterUnits="userSpaceOnUse" color-interpolation-filters="sRGB">
<feFlood flood-opacity="0" result="BackgroundImageFix"/>
<feColorMatrix in="SourceAlpha" type="matrix" values="0 0 0 0 0 0 0 0 0 0 0 0 0 0 0 0 0 0 127 0" result="hardAlpha"/>
<feOffset dy="0.22888"/>
<feGaussianBlur stdDeviation="0.0762932"/>
<feColorMatrix type="matrix" values="0 0 0 0 0.164706 0 0 0 0 0.290196 0 0 0 0 0.917647 0 0 0 0.68 0"/>
<feBlend mode="normal" in2="BackgroundImageFix" result="effect1_dropShadow_11347_241844"/>
<feBlend mode="normal" in="SourceGraphic" in2="effect1_dropShadow_11347_241844" result="shape"/>
</filter>
<linearGradient id="paint0_linear_11347_241844" x1="1.73311" y1="6.32582" x2="6.1688" y2="11.5237" gradientUnits="userSpaceOnUse">
<stop stop-color="#E4F5FC"/>
<stop offset="0.91" stop-color="#94A9D9"/>
</linearGradient>
<linearGradient id="paint1_linear_11347_241844" x1="1.28491" y1="6.87882" x2="6.82608" y2="13.3798" gradientUnits="userSpaceOnUse">
<stop offset="0.05" stop-color="#6F8CCC"/>
<stop offset="0.92" stop-color="#5C74BB"/>
</linearGradient>
<linearGradient id="paint2_linear_11347_241844" x1="2.42287" y1="8.76771" x2="6.11927" y2="14.1021" gradientUnits="userSpaceOnUse">
<stop stop-color="#4359A2"/>
<stop offset="0.9" stop-color="#4259A0"/>
</linearGradient>
<linearGradient id="paint3_linear_11347_241844" x1="-0.273263" y1="10.8799" x2="5.12999" y2="15.0612" gradientUnits="userSpaceOnUse">
<stop stop-color="#F3F7FD"/>
<stop offset="0.99" stop-color="#B7D3F2"/>
</linearGradient>
<linearGradient id="paint4_linear_11347_241844" x1="-0.622406" y1="11.5432" x2="6.13033" y2="16.7755" gradientUnits="userSpaceOnUse">
<stop offset="0.05" stop-color="#6F8CCC"/>
<stop offset="0.92" stop-color="#5C74BB"/>
</linearGradient>
<linearGradient id="paint5_linear_11347_241844" x1="0.876262" y1="13.1609" x2="5.58539" y2="17.6273" gradientUnits="userSpaceOnUse">
<stop stop-color="#4359A2"/>
<stop offset="0.9" stop-color="#4259A0"/>
</linearGradient>
<linearGradient id="paint6_linear_11347_241844" x1="0.0103423" y1="15.6051" x2="6.55794" y2="17.5563" gradientUnits="userSpaceOnUse">
<stop stop-color="#F3F7FD"/>
<stop offset="0.99" stop-color="#B7D3F2"/>
</linearGradient>
<linearGradient id="paint7_linear_11347_241844" x1="-0.076137" y1="16.3496" x2="8.10918" y2="18.7945" gradientUnits="userSpaceOnUse">
<stop offset="0.05" stop-color="#6F8CCC"/>
<stop offset="0.92" stop-color="#5C74BB"/>
</linearGradient>
<linearGradient id="paint8_linear_11347_241844" x1="1.90464" y1="17.318" x2="7.90703" y2="19.7859" gradientUnits="userSpaceOnUse">
<stop stop-color="#4359A2"/>
<stop offset="0.9" stop-color="#4259A0"/>
</linearGradient>
<linearGradient id="paint9_linear_11347_241844" x1="2.29873" y1="19.9663" x2="9.05853" y2="18.9746" gradientUnits="userSpaceOnUse">
<stop stop-color="#F3F7FD"/>
<stop offset="0.99" stop-color="#B7D3F2"/>
</linearGradient>
<linearGradient id="paint10_linear_11347_241844" x1="2.53393" y1="20.6784" x2="10.9862" y2="19.4434" gradientUnits="userSpaceOnUse">
<stop offset="0.05" stop-color="#6F8CCC"/>
<stop offset="0.92" stop-color="#5C74BB"/>
</linearGradient>
<linearGradient id="paint11_linear_11347_241844" x1="4.73877" y1="20.7196" x2="11.2221" y2="20.4264" gradientUnits="userSpaceOnUse">
<stop stop-color="#4359A2"/>
<stop offset="0.9" stop-color="#4259A0"/>
</linearGradient>
<linearGradient id="paint12_linear_11347_241844" x1="28.2668" y1="0.461041" x2="23.8312" y2="0.461041" gradientUnits="userSpaceOnUse">
<stop stop-color="#E4F5FC"/>
<stop offset="0.91" stop-color="#94A9D9"/>
</linearGradient>
<linearGradient id="paint13_linear_11347_241844" x1="28.7153" y1="6.8787" x2="23.1749" y2="13.3796" gradientUnits="userSpaceOnUse">
<stop offset="0.05" stop-color="#6F8CCC"/>
<stop offset="0.92" stop-color="#5C74BB"/>
</linearGradient>
<linearGradient id="paint14_linear_11347_241844" x1="27.5781" y1="8.76759" x2="23.8817" y2="14.102" gradientUnits="userSpaceOnUse">
<stop stop-color="#4359A2"/>
<stop offset="0.9" stop-color="#4259A0"/>
</linearGradient>
<linearGradient id="paint15_linear_11347_241844" x1="30.2723" y1="10.8812" x2="24.869" y2="15.0625" gradientUnits="userSpaceOnUse">
<stop stop-color="#F3F7FD"/>
<stop offset="0.99" stop-color="#B7D3F2"/>
</linearGradient>
<linearGradient id="paint16_linear_11347_241844" x1="30.6206" y1="11.5444" x2="23.8686" y2="16.7769" gradientUnits="userSpaceOnUse">
<stop offset="0.05" stop-color="#6F8CCC"/>
<stop offset="0.92" stop-color="#5C74BB"/>
</linearGradient>
<linearGradient id="paint17_linear_11347_241844" x1="29.1218" y1="13.162" x2="24.4134" y2="17.6286" gradientUnits="userSpaceOnUse">
<stop stop-color="#4359A2"/>
<stop offset="0.9" stop-color="#4259A0"/>
</linearGradient>
<linearGradient id="paint18_linear_11347_241844" x1="29.9897" y1="15.6046" x2="23.4421" y2="17.5558" gradientUnits="userSpaceOnUse">
<stop stop-color="#F3F7FD"/>
<stop offset="0.99" stop-color="#B7D3F2"/>
</linearGradient>
<linearGradient id="paint19_linear_11347_241844" x1="30.0763" y1="16.3495" x2="21.8921" y2="18.7942" gradientUnits="userSpaceOnUse">
<stop offset="0.05" stop-color="#6F8CCC"/>
<stop offset="0.92" stop-color="#5C74BB"/>
</linearGradient>
<linearGradient id="paint20_linear_11347_241844" x1="28.0946" y1="17.3177" x2="22.0927" y2="19.785" gradientUnits="userSpaceOnUse">
<stop stop-color="#4359A2"/>
<stop offset="0.9" stop-color="#4259A0"/>
</linearGradient>
<linearGradient id="paint21_linear_11347_241844" x1="27.7004" y1="19.9676" x2="20.9413" y2="18.9755" gradientUnits="userSpaceOnUse">
<stop stop-color="#F3F7FD"/>
<stop offset="0.99" stop-color="#B7D3F2"/>
</linearGradient>
<linearGradient id="paint22_linear_11347_241844" x1="27.4653" y1="20.6786" x2="19.0127" y2="19.4447" gradientUnits="userSpaceOnUse">
<stop offset="0.05" stop-color="#6F8CCC"/>
<stop offset="0.92" stop-color="#5C74BB"/>
</linearGradient>
<linearGradient id="paint23_linear_11347_241844" x1="25.2608" y1="20.7209" x2="18.7774" y2="20.4277" gradientUnits="userSpaceOnUse">
<stop stop-color="#4359A2"/>
<stop offset="0.9" stop-color="#4259A0"/>
</linearGradient>
<linearGradient id="paint24_linear_11347_241844" x1="14.9976" y1="3.55529" x2="14.9976" y2="26.0816" gradientUnits="userSpaceOnUse">
<stop stop-color="#F3F7FD"/>
<stop offset="0.99" stop-color="#B7D3F2"/>
</linearGradient>
<linearGradient id="paint25_linear_11347_241844" x1="20.4779" y1="3.88946" x2="20.4779" y2="26.2083" gradientUnits="userSpaceOnUse">
<stop stop-color="#B8D4F1"/>
<stop offset="0.98" stop-color="#93A8D9"/>
</linearGradient>
<linearGradient id="paint26_linear_11347_241844" x1="14.9975" y1="6.79846" x2="14.9975" y2="23.0977" gradientUnits="userSpaceOnUse">
<stop stop-color="#4567A5"/>
<stop offset="0.97" stop-color="#7488C2"/>
</linearGradient>
<linearGradient id="paint27_linear_11347_241844" x1="14.9304" y1="10.1147" x2="14.9304" y2="19.6933" gradientUnits="userSpaceOnUse">
<stop stop-color="#F3F6FD"/>
<stop offset="0.94" stop-color="#CCDFF4"/>
</linearGradient>
<clipPath id="clip0_11347_241844">
<rect width="30" height="30" fill="white"/>
</clipPath>
</defs>
</svg>
